<?xml version="1.0" encoding="UTF-8"?>
<svg id="Layer_1" data-name="Layer 1" xmlns="http://www.w3.org/2000/svg" viewBox="0 0 50 50">
  <defs>
    <style>
      .cls-1 {
        fill: #c8a97e;
      }
    </style>
  </defs>
  <polygon class="cls-1" points="20.09 29.37 25.22 38.36 25.14 33.03 20.09 29.37"/>
  <polygon class="cls-1" points="25.53 30.86 25.53 37.62 28.84 28.47 25.53 30.86"/>
  <path class="cls-1" d="M32.48,17.54c-.1-.36-.45-.45-.72-.62s-2.69-.57-3.42-.8c-.74-.23-.99-1.29-1.01-1.42-.02-.14-.06-6.39-.06-6.39.21-.12.24-.23.24-.23.15-.69-.06-3.7-.06-3.7-.18-.37-2.69-.32-3-.31-.31,0-2.82-.06-3,.31,0,0-.21,3.01-.06,3.7,0,0,.03.11.24.23,0,0-.03,6.25-.06,6.39-.02.14-.28,1.2-1.01,1.42-.74.23-3.15.63-3.42.8s-.62.26-.72.62l.1,25.01s-.11.98,1.39,1.81c1.45.8,4.25,1.08,6.54,1.02,2.29.07,5.09-.22,6.54-1.02,1.5-.83,1.39-1.81,1.39-1.81l.1-25.01ZM29.19,28.4l-4.14,11.59.02-1.23-5.29-9.38-.94-1.29,6.38,4.63v-1.99l4.84-3.48-.87,1.15Z"/>
</svg>