<?xml version="1.0" encoding="UTF-8"?>
<svg id="Layer_1" data-name="Layer 1" xmlns="http://www.w3.org/2000/svg" viewBox="0 0 50 50">
  <defs>
    <style>
      .cls-1 {
        fill: #c8a97e;
      }
    </style>
  </defs>
  <path class="cls-1" d="M28.11,11c0-.23-.19-.41-.41-.41h-5.37c-.23,0-.41.19-.41.41v1.88h6.19v-1.88Z"/>
  <polygon class="cls-1" points="25 13.65 28.11 13.65 28.11 12.98 21.92 12.98 21.92 13.65 25 13.65"/>
  <polygon class="cls-1" points="21 21.18 25.71 29.44 25.64 24.55 21 21.18"/>
  <polygon class="cls-1" points="26 22.55 26 28.76 29.04 20.35 26 22.55"/>
  <path class="cls-1" d="M32.38,27.62c0-3.88,0-7.51,0-8.01-.02-1.1-.28-1.22-.39-1.3-.11-.08-2.1-.84-2.1-.84-1.82-.49-2.1-1.18-2.13-1.36-.02-.17-.03-1.64-.03-1.94,0-.18.12-.34.21-.44h-5.95c.09.08.28.28.28.51,0,.3-.01,1.77-.03,1.94-.02.17-.31.86-2.13,1.36,0,0-1.99.76-2.1.84-.11.08-.37.2-.39,1.3-.02.92,0,12.88,0,16.84,0,.13,0,.25,0,.36v.91s0,0,0,0v.24c0,.77.62,1.38,1.38,1.38h11.98s.04,0,.06,0c.08,0,.15-.02.21-.04.15-.03.29-.07.42-.14.01,0,.02-.01.04-.02.3-.16.47-.39.57-.62.08-.17.13-.37.13-.57v-10.39h-.02ZM29.36,20.29l-3.8,10.64.02-1.13-4.86-8.62-.86-1.18,5.86,4.26v-1.83l4.44-3.2-.8,1.06Z"/>
</svg>