<?xml version="1.0" encoding="UTF-8"?>
<svg id="Layer_1" xmlns="http://www.w3.org/2000/svg" version="1.1" viewBox="0 0 1447.72 2039.24">
  <!-- Generator: Adobe Illustrator 30.2.1, SVG Export Plug-In . SVG Version: 2.1.1 Build 1)  -->
  <defs>
    <style>
      .st0 {
        fill: #fdf6ea;
      }

      .st1 {
        fill: #f0debc;
      }
    </style>
  </defs>
  <path class="st0" d="M0,109.14l823.37,597.85v-257.44L1447.72,0l-111.91,149.04-534.1,1495.35,2.51-158.72L121.27,275.09,0,109.14ZM823.37,1434.61l-10.2-687.2L161.7,275.09l661.67,1159.52ZM863.79,1338.87L1291.43,158.07l-427.64,308.5v872.3h0Z"/>
  <g>
    <polygon class="st1" points="95.01 1966.79 150.64 1843.31 186.47 1843.31 94.5 2043.52 2.53 1843.31 38.85 1843.31 94.5 1966.79 95.01 1966.79"/>
    <polygon class="st1" points="313.25 1875.07 241.86 1875.07 241.86 1918.01 311.97 1918.01 311.97 1949.77 241.86 1949.77 241.86 2003.12 313.25 2003.12 313.25 2034.87 207.56 2034.87 207.56 1843.31 313.25 1843.31 313.25 1875.07"/>
    <path class="st1" d="M389.38,1958.4v76.47h-34.3v-191.56h54.88c21.59,0,35.57,6.36,46.49,16.77,10.41,10.16,16.51,24.13,16.51,40.39,0,25.41-7.72,45.51-32.11,52.37l54.59,82.04h-39.12l-49.29-76.47h-17.65ZM430.3,1920.03c4.82-4.83,7.37-11.18,7.37-18.8s-2.54-13.98-7.37-18.8c-5.08-5.08-11.43-7.88-24.39-7.88h-16.51v53.36h16.51c12.96,0,19.31-3.04,24.39-7.88"/>
    <rect class="st1" x="526.34" y="1843.31" width="34.3" height="191.56"/>
    <path class="st1" d="M730.23,2007.18c-17.28,17.28-40.65,27.69-73.17,27.69h-50.56v-191.56h50.56c32.52,0,55.89,10.41,73.17,27.69,17.28,17.28,27.69,41.41,27.69,68.09s-10.41,50.81-27.69,68.09M653.5,2003.12c23.38,0,39.38-7.11,50.81-18.55,11.43-11.43,18.29-27.18,18.29-45.48s-6.86-34.05-18.29-45.48c-11.43-11.43-27.43-18.55-50.81-18.55h-12.7v128.05h12.7Z"/>
    <path class="st1" d="M788.68,1939.09c0-55.39,42.68-99.34,99.08-99.34s99.34,43.96,99.34,99.34-43.19,99.34-99.34,99.34-99.08-43.95-99.08-99.34M951.78,1939.09c0-37.86-27.43-66.57-64.03-66.57s-63.77,28.71-63.77,66.57,27.18,66.57,63.77,66.57,64.03-28.71,64.03-66.57"/>
    <path class="st1" d="M1011.84,2013.02l19-29.87c3.9,16.15,23.58,22.52,39.08,22.52,17.53,0,29.72-12.19,29.72-27.69,0-9.4-5.33-19.81-20.58-25.66l-26.42-9.66c-27.69-10.41-39.64-29.98-39.64-51.32,0-29.21,23.88-51.58,55.89-51.58,23.62,0,33.36,5.82,41.76,19.75l-10.61,28.98c-12.83-16.94-21.24-15.97-31.15-15.97-11.95,0-20.58,7.88-20.58,18.8,0,5.84,2.53,13.47,14.48,18.29l26.93,9.91c30.99,11.43,45.22,34.3,45.22,58.44,0,33.53-27.43,60.47-65.04,60.47-33.28,0-50.37-16.23-58.08-25.41"/>
    <polygon class="st1" points="1194.17 1918.77 1272.67 1918.77 1272.67 1843.31 1306.98 1843.31 1306.98 2034.87 1272.67 2034.87 1272.67 1950.52 1194.17 1950.52 1194.17 2034.87 1159.87 2034.87 1159.87 1843.31 1194.17 1843.31 1194.17 1918.77"/>
    <polygon class="st1" points="1445.19 1875.07 1373.8 1875.07 1373.8 1918.01 1443.93 1918.01 1443.93 1949.77 1373.8 1949.77 1373.8 2003.12 1445.19 2003.12 1445.19 2034.87 1339.5 2034.87 1339.5 1843.31 1445.19 1843.31 1445.19 1875.07"/>
    <rect class="st1" x="1368.52" y="1803.85" width="52.49" height="22.1" transform="translate(-711.94 919.9) rotate(-29.44)"/>
  </g>
</svg>