<?xml version="1.0" encoding="UTF-8"?>
<svg id="Layer_1" xmlns="http://www.w3.org/2000/svg" version="1.1" viewBox="0 0 1946.76 338.76">
  <!-- Generator: Adobe Illustrator 30.2.1, SVG Export Plug-In . SVG Version: 2.1.1 Build 1)  -->
  <defs>
    <style>
      .st0 {
        fill: #fdf6ea;
      }
    </style>
  </defs>
  <polygon class="st0" points="124.79 235.22 199.87 68.6 248.22 68.6 124.11 338.76 0 68.6 49.03 68.6 124.11 235.22 124.79 235.22"/>
  <polygon class="st0" points="419.3 111.46 322.96 111.46 322.96 169.4 417.58 169.4 417.58 212.25 322.96 212.25 322.96 284.25 419.3 284.25 419.3 327.1 276.68 327.1 276.68 68.6 419.3 68.6 419.3 111.46"/>
  <path class="st0" d="M522.04,223.91v103.2h-46.28V68.6h74.05c29.14,0,48,8.57,62.74,22.63,14.06,13.71,22.28,32.57,22.28,54.51,0,34.28-10.41,61.41-43.33,70.67l73.67,110.69h-52.8l-66.51-103.2h-23.82ZM577.24,172.14c6.51-6.52,9.94-15.09,9.94-25.37s-3.43-18.86-9.94-25.37c-6.86-6.86-15.43-10.63-32.91-10.63h-22.28v72h22.28c17.48,0,26.06-4.11,32.91-10.63"/>
  <rect class="st0" x="706.84" y="68.6" width="46.28" height="258.5"/>
  <path class="st0" d="M981.98,289.73c-23.31,23.31-54.85,37.37-98.74,37.37h-68.22V68.6h68.22c43.88,0,75.42,14.06,98.74,37.37,23.31,23.32,37.37,55.88,37.37,91.88s-14.06,68.57-37.37,91.88M878.44,284.25c31.54,0,53.14-9.6,68.57-25.03s24.68-36.68,24.68-61.37-9.26-45.94-24.68-61.37c-15.43-15.43-37.03-25.03-68.57-25.03h-17.14v172.79h17.14Z"/>
  <path class="st0" d="M1060.84,197.85c0-74.74,57.6-134.05,133.71-134.05s134.05,59.31,134.05,134.05-58.28,134.05-134.05,134.05-133.71-59.31-133.71-134.05M1280.94,197.85c0-51.08-37.03-89.82-86.39-89.82s-86.05,38.74-86.05,89.82,36.68,89.82,86.05,89.82,86.39-38.74,86.39-89.82"/>
  <path class="st0" d="M1362,297.61l25.64-40.32c5.27,21.8,31.82,30.39,52.73,30.39,23.66,0,40.11-16.46,40.11-37.37,0-12.68-7.2-26.74-27.77-34.63l-35.66-13.03c-37.37-14.06-53.48-40.45-53.48-69.25,0-39.43,32.23-69.6,75.42-69.6,31.88,0,45.02,7.85,56.35,26.66l-14.32,39.11c-17.31-22.87-28.66-21.54-42.03-21.54-16.11,0-27.77,10.63-27.77,25.37,0,7.89,3.43,18.17,19.54,24.68l36.34,13.37c41.83,15.43,61.02,46.28,61.02,78.85,0,45.26-37.03,81.6-87.77,81.6-44.91,0-67.97-21.9-78.37-34.29"/>
  <polygon class="st0" points="1608.03 170.42 1713.97 170.42 1713.97 68.6 1760.25 68.6 1760.25 327.1 1713.97 327.1 1713.97 213.28 1608.03 213.28 1608.03 327.1 1561.74 327.1 1561.74 68.6 1608.03 68.6 1608.03 170.42"/>
  <polygon class="st0" points="1946.76 111.46 1850.42 111.46 1850.42 169.4 1945.05 169.4 1945.05 212.25 1850.42 212.25 1850.42 284.25 1946.76 284.25 1946.76 327.1 1804.14 327.1 1804.14 68.6 1946.76 68.6 1946.76 111.46"/>
  <rect class="st0" x="1843.22" y="15.4" width="70.83" height="29.82" transform="translate(227.69 927.28) rotate(-29.44)"/>
</svg>